<svg width="38" height="40" viewBox="0 0 38 40" fill="none" xmlns="http://www.w3.org/2000/svg">
<rect width="38" height="40" fill="#162E51"/>
<rect width="34" height="36" transform="translate(2 2)" fill="#162E51"/>
<path d="M5.82617 32.78H9.00536L8.55172 12.98H6.27981L5.82617 32.78Z" fill="white"/>
<path d="M34.6141 36.38V34.67H33.1359V33.05H4.86413V34.67H3.47826V36.38H2V38H36V36.38H34.6141Z" fill="white"/>
<path d="M29.165 32.78H32.3451L31.8915 12.89H29.6186L29.165 32.78Z" fill="white"/>
<path d="M32.582 11.0045L19.0005 2L5.41895 11.0045V12.6201H32.582V11.0045ZM19.0005 8.27309C18.5486 8.27309 18.1153 8.09824 17.7958 7.787C17.4763 7.47575 17.2968 7.05365 17.2968 6.61349C17.2968 6.17333 17.4763 5.75123 17.7958 5.43998C18.1153 5.12873 18.5486 4.95389 19.0005 4.95389C19.4523 4.95389 19.8856 5.12873 20.2052 5.43998C20.5247 5.75123 20.7042 6.17333 20.7042 6.61349C20.7042 7.05365 20.5247 7.47575 20.2052 7.787C19.8856 8.09825 19.4523 8.27309 19.0005 8.27309Z" fill="white"/>
<path d="M10.9619 13.34C10.5209 13.34 10.0977 13.5106 9.78592 13.8145C9.47397 14.1182 9.29883 14.5304 9.29883 14.96V30.8C9.29883 31.2296 9.47399 31.6418 9.78592 31.9455C10.0977 32.2494 10.5208 32.42 10.9619 32.42H27.2227C27.6638 32.42 28.0869 32.2494 28.3987 31.9455C28.7106 31.6418 28.8858 31.2296 28.8858 30.8V14.96C28.8858 14.5304 28.7106 14.1182 28.3987 13.8145C28.0869 13.5106 27.6638 13.34 27.2227 13.34H10.9619ZM27.7771 14.96V30.8C27.7771 30.9432 27.7187 31.0805 27.6147 31.1818C27.5107 31.2832 27.3698 31.34 27.2227 31.34H10.9619C10.8149 31.34 10.6739 31.2832 10.5699 31.1818C10.4658 31.0806 10.4075 30.9432 10.4075 30.8V14.96C10.4075 14.8168 10.4658 14.6794 10.5699 14.5782C10.6738 14.4768 10.8148 14.42 10.9619 14.42H27.2227C27.3697 14.42 27.5107 14.4768 27.6147 14.5782C27.7187 14.6794 27.7771 14.8168 27.7771 14.96Z" fill="white"/>
<path d="M18.7699 19.3916L12.2822 16.0976V25.076L18.7699 28.37V19.3916Z" fill="white"/>
<path d="M25.889 16.0976L19.4004 19.3916V28.37L25.889 25.076V16.0976Z" fill="white"/>
<path d="M26.5186 16.0976V25.4486L26.1897 25.6205L19.6853 28.9145L19.3997 29.0622L19.0847 29.2214L18.7697 29.0622L18.4795 28.9145L11.9807 25.6205L11.6518 25.4486V16.0976H10.7695V25.8239L19.0847 30.2924L27.4 25.8239V16.0976H26.5186Z" fill="white"/>
</svg>
